<svg data-v-423bf9ae="" xmlns="http://www.w3.org/2000/svg" viewBox="0 0 426 112" class="iconLeft"><!----><!----><!----><g data-v-423bf9ae="" id="99a36f91-feec-4f72-821f-81f368fb0ce6" fill="white" transform="matrix(4.395604518446158,0,0,4.395604518446158,125.88033770338288,-9.521367366900435)"><path d="M7.11 10.43L7.11 10.43Q7.88 10.43 8.48 10.83L8.48 10.83L8.48 10.83Q9.07 11.23 9.39 11.96L9.39 11.96L9.39 11.96Q9.72 12.68 9.72 13.65L9.72 13.65L9.72 13.65Q9.72 15.23 8.92 16.50L8.92 16.50L8.92 16.50Q8.12 17.77 6.71 18.47L6.71 18.47L6.71 18.47Q5.29 19.18 3.51 19.18L3.51 19.18L3.51 19.18Q2.30 19.18 1.74 18.65L1.74 18.65L1.74 18.65Q1.19 18.12 1.19 16.90L1.19 16.90L1.19 16.90Q1.19 16.21 1.44 14.69L1.44 14.69L1.44 14.69Q1.69 13.16 2.32 9.81L2.32 9.81L1.61 8.85L1.61 8.85Q2.13 8.47 2.72 8.23L2.72 8.23L2.72 8.23Q3.32 7.99 3.84 7.99L3.84 7.99L3.84 7.99Q4.38 7.99 4.61 8.20L4.61 8.20L4.61 8.20Q4.84 8.41 4.84 8.90L4.84 8.90L4.84 8.90Q4.84 9.23 4.75 9.69L4.75 9.69L4.75 9.69Q4.65 10.15 4.41 11.16L4.41 11.16L4.09 12.53L4.23 12.60L4.23 12.60Q4.68 11.58 5.44 11.00L5.44 11.00L5.44 11.00Q6.20 10.43 7.11 10.43L7.11 10.43ZM3.22 17.95L3.22 17.95Q4.37 17.86 5.31 17.33L5.31 17.33L5.31 17.33Q6.26 16.80 6.80 15.94L6.80 15.94L6.80 15.94Q7.35 15.08 7.35 14.07L7.35 14.07L7.35 14.07Q7.35 13.29 7.02 12.85L7.02 12.85L7.02 12.85Q6.69 12.42 6.09 12.42L6.09 12.42L6.09 12.42Q5.33 12.42 4.68 13.11L4.68 13.11L4.68 13.11Q4.02 13.80 3.62 15.06L3.62 15.06L3.62 15.06Q3.22 16.32 3.22 17.95L3.22 17.95ZM19.14 17.54L19.14 17.54Q19.14 18.31 19.50 18.61L19.50 18.61L19.50 18.61Q18.84 19.18 18.10 19.18L18.10 19.18L18.10 19.18Q17.44 19.18 17.11 18.84L17.11 18.84L17.11 18.84Q16.77 18.51 16.73 17.81L16.73 17.81L16.60 17.74L16.60 17.74Q16.07 18.40 15.31 18.79L15.31 18.79L15.31 18.79Q14.55 19.18 13.71 19.18L13.71 19.18L13.71 19.18Q12.57 19.18 12.03 18.63L12.03 18.63L12.03 18.63Q11.48 18.07 11.48 16.91L11.48 16.91L11.48 16.91Q11.48 16.38 11.57 15.79L11.57 15.79L11.57 15.79Q11.66 15.20 11.83 14.31L11.83 14.31L11.83 14.31Q11.97 13.57 12.05 13.08L12.05 13.08L12.05 13.08Q12.12 12.59 12.12 12.19L12.12 12.19L12.12 12.19Q12.12 11.41 11.89 11.00L11.89 11.00L11.89 11.00Q12.35 10.75 12.85 10.59L12.85 10.59L12.85 10.59Q13.34 10.43 13.65 10.43L13.65 10.43L13.65 10.43Q14.17 10.43 14.40 10.65L14.40 10.65L14.40 10.65Q14.63 10.88 14.63 11.40L14.63 11.40L14.63 11.40Q14.63 11.73 14.52 12.34L14.52 12.34L14.52 12.34Q14.41 12.95 14.18 14.00L14.18 14.00L14.18 14.00Q14.03 14.74 13.90 15.45L13.90 15.45L13.90 15.45Q13.76 16.16 13.76 16.46L13.76 16.46L13.76 16.46Q13.76 17.74 14.87 17.74L14.87 17.74L14.87 17.74Q15.41 17.74 15.94 17.40L15.94 17.40L15.94 17.40Q16.46 17.05 16.86 16.45L16.86 16.45L16.86 16.45Q17.04 15.34 17.72 12.35L17.72 12.35L17.02 11.30L17.02 11.30Q18.38 10.43 19.32 10.43L19.32 10.43L19.32 10.43Q19.84 10.43 20.05 10.65L20.05 10.65L20.05 10.65Q20.27 10.86 20.27 11.37L20.27 11.37L20.27 11.37Q20.27 11.56 19.95 12.92L19.95 12.92L19.95 12.92Q19.59 14.43 19.36 15.58L19.36 15.58L19.36 15.58Q19.14 16.72 19.14 17.54L19.14 17.54ZM23.48 19.18L23.48 19.18Q22.81 19.18 22.49 18.77L22.49 18.77L22.49 18.77Q22.18 18.37 22.18 17.51L22.18 17.51L22.18 17.51Q22.18 16.84 22.52 14.74L22.52 14.74L22.52 14.74Q22.86 12.64 23.37 9.80L23.37 9.80L22.64 8.83L22.64 8.83Q23.14 8.46 23.75 8.22L23.75 8.22L23.75 8.22Q24.36 7.98 24.86 7.98L24.86 7.98L24.86 7.98Q25.41 7.98 25.65 8.19L25.65 8.19L25.65 8.19Q25.89 8.40 25.89 8.89L25.89 8.89L25.89 8.89Q25.89 9.18 25.78 9.74L25.78 9.74L25.78 9.74Q25.68 10.30 25.47 11.28L25.47 11.28L25.47 11.28Q25.06 13.12 24.81 14.59L24.81 14.59L24.81 14.59Q24.57 16.06 24.57 17.35L24.57 17.35L24.57 17.35Q24.57 17.84 24.66 18.12L24.66 18.12L24.66 18.12Q24.75 18.40 24.95 18.61L24.95 18.61L24.95 18.61Q24.64 18.89 24.25 19.03L24.25 19.03L24.25 19.03Q23.86 19.18 23.48 19.18L23.48 19.18ZM28.81 19.18L28.81 19.18Q28.14 19.18 27.82 18.77L27.82 18.77L27.82 18.77Q27.51 18.37 27.51 17.51L27.51 17.51L27.51 17.51Q27.51 16.84 27.85 14.74L27.85 14.74L27.85 14.74Q28.20 12.64 28.70 9.80L28.70 9.80L27.97 8.83L27.97 8.83Q28.48 8.46 29.08 8.22L29.08 8.22L29.08 8.22Q29.69 7.98 30.20 7.98L30.20 7.98L30.20 7.98Q30.74 7.98 30.98 8.19L30.98 8.19L30.98 8.19Q31.22 8.40 31.22 8.89L31.22 8.89L31.22 8.89Q31.22 9.18 31.11 9.74L31.11 9.74L31.11 9.74Q31.01 10.30 30.80 11.28L30.80 11.28L30.80 11.28Q30.39 13.12 30.15 14.59L30.15 14.59L30.15 14.59Q29.90 16.06 29.90 17.35L29.90 17.35L29.90 17.35Q29.90 17.84 29.99 18.12L29.99 18.12L29.99 18.12Q30.09 18.40 30.28 18.61L30.28 18.61L30.28 18.61Q29.97 18.89 29.58 19.03L29.58 19.03L29.58 19.03Q29.19 19.18 28.81 19.18L28.81 19.18ZM35.55 19.18L35.55 19.18Q33.89 19.18 33.07 18.75L33.07 18.75L33.07 18.75Q32.26 18.31 32.26 17.56L32.26 17.56L32.26 17.56Q32.26 17.23 32.45 16.90L32.45 16.90L32.45 16.90Q32.65 16.56 33.00 16.32L33.00 16.32L33.00 16.32Q33.38 17.01 33.98 17.39L33.98 17.39L33.98 17.39Q34.59 17.77 35.42 17.77L35.42 17.77L35.42 17.77Q36.09 17.77 36.63 17.49L36.63 17.49L36.63 17.49Q37.17 17.21 37.17 16.69L37.17 16.69L37.17 16.69Q37.17 16.37 36.78 16.16L36.78 16.16L36.78 16.16Q36.40 15.96 35.59 15.71L35.59 15.71L35.59 15.71Q34.71 15.43 34.13 15.17L34.13 15.17L34.13 15.17Q33.56 14.91 33.14 14.43L33.14 14.43L33.14 14.43Q32.73 13.96 32.73 13.23L32.73 13.23L32.73 13.23Q32.73 11.87 33.96 11.15L33.96 11.15L33.96 11.15Q35.20 10.43 37.10 10.43L37.10 10.43L37.10 10.43Q38.44 10.43 39.24 10.84L39.24 10.84L39.24 10.84Q40.04 11.24 40.04 11.90L40.04 11.90L40.04 11.90Q40.04 12.49 39.63 12.82L39.63 12.82L39.63 12.82Q39.23 13.15 38.63 13.15L38.63 13.15L38.63 13.15Q38.07 13.15 37.61 12.79L37.61 12.79L37.61 12.79Q37.16 12.43 36.90 11.76L36.90 11.76L36.90 11.76Q36.11 11.83 35.59 12.16L35.59 12.16L35.59 12.16Q35.07 12.49 35.07 12.95L35.07 12.95L35.07 12.95Q35.07 13.30 35.45 13.50L35.45 13.50L35.45 13.50Q35.83 13.71 36.68 13.99L36.68 13.99L36.68 13.99Q37.55 14.27 38.12 14.53L38.12 14.53L38.12 14.53Q38.70 14.78 39.10 15.27L39.10 15.27L39.10 15.27Q39.51 15.75 39.51 16.49L39.51 16.49L39.51 16.49Q39.51 17.35 38.93 17.96L38.93 17.96L38.93 17.96Q38.36 18.56 37.46 18.87L37.46 18.87L37.46 18.87Q36.55 19.18 35.55 19.18L35.55 19.18ZM49.27 12.45L49.27 12.45Q49.27 13.41 48.61 14.11L48.61 14.11L48.61 14.11Q47.95 14.81 46.70 15.19L46.70 15.19L46.70 15.19Q45.46 15.57 43.74 15.58L43.74 15.58L43.74 15.76L43.74 15.76Q43.74 16.79 44.10 17.36L44.10 17.36L44.10 17.36Q44.46 17.93 45.11 17.93L45.11 17.93L45.11 17.93Q45.89 17.93 46.40 17.39L46.40 17.39L46.40 17.39Q46.90 16.84 46.94 15.95L46.94 15.95L46.94 15.95Q47.67 15.95 48.05 16.22L48.05 16.22L48.05 16.22Q48.44 16.49 48.44 17.01L48.44 17.01L48.44 17.01Q48.44 17.60 47.96 18.10L47.96 18.10L47.96 18.10Q47.49 18.59 46.67 18.89L46.67 18.89L46.67 18.89Q45.85 19.18 44.86 19.18L44.86 19.18L44.86 19.18Q43.22 19.18 42.29 18.26L42.29 18.26L42.29 18.26Q41.37 17.33 41.37 15.71L41.37 15.71L41.37 15.71Q41.37 14.21 42.06 13.01L42.06 13.01L42.06 13.01Q42.76 11.80 43.97 11.12L43.97 11.12L43.97 11.12Q45.19 10.43 46.70 10.43L46.70 10.43L46.70 10.43Q47.92 10.43 48.59 10.96L48.59 10.96L48.59 10.96Q49.27 11.49 49.27 12.45L49.27 12.45ZM46.33 11.77L46.33 11.77Q45.49 11.77 44.79 12.59L44.79 12.59L44.79 12.59Q44.10 13.40 43.85 14.63L43.85 14.63L43.85 14.63Q45.44 14.56 46.32 14.04L46.32 14.04L46.32 14.04Q47.19 13.51 47.19 12.61L47.19 12.61L47.19 12.61Q47.19 12.24 46.96 12.01L46.96 12.01L46.96 12.01Q46.72 11.77 46.33 11.77L46.33 11.77ZM58.03 10.43L58.03 10.43Q59.14 10.43 59.14 11.51L59.14 11.51L59.14 11.51Q59.14 13.41 58.11 15.81L58.11 15.81L58.11 15.81Q57.09 18.21 55.25 19.92L55.25 19.92L55.25 19.92Q53.41 21.63 51.07 21.63L51.07 21.63L51.07 21.63Q50.01 21.63 49.45 21.25L49.45 21.25L49.45 21.25Q48.90 20.87 48.90 20.19L48.90 20.19L48.90 20.19Q48.90 19.87 49.06 19.55L49.06 19.55L49.06 19.55Q49.22 19.24 49.43 19.05L49.43 19.05L49.43 19.05Q49.99 19.89 51.23 19.89L51.23 19.89L51.23 19.89Q51.69 19.89 52.25 19.70L52.25 19.70L52.25 19.70Q52.81 19.50 53.37 19.12L53.37 19.12L53.37 19.12Q52.46 18.96 52.03 18.31L52.03 18.31L52.03 18.31Q51.60 17.67 51.49 16.84L51.49 16.84L51.49 16.84Q51.38 16.00 51.37 14.63L51.37 14.63L51.37 14.63Q51.35 13.15 51.20 12.28L51.20 12.28L51.20 12.28Q51.06 11.41 50.54 10.93L50.54 10.93L50.54 10.93Q51.20 10.43 51.94 10.43L51.94 10.43L51.94 10.43Q52.71 10.43 53.10 10.91L53.10 10.91L53.10 10.91Q53.49 11.40 53.61 12.14L53.61 12.14L53.61 12.14Q53.72 12.88 53.72 14.00L53.72 14.00L53.72 14.99L53.72 14.99Q53.72 16.27 53.88 17.02L53.88 17.02L53.88 17.02Q54.04 17.78 54.56 18.09L54.56 18.09L54.56 18.09Q55.55 17.00 56.15 15.40L56.15 15.40L56.15 15.40Q56.76 13.80 56.76 11.73L56.76 11.73L56.76 11.73Q56.76 11.26 56.70 10.93L56.70 10.93L56.70 10.93Q57.01 10.70 57.36 10.56L57.36 10.56L57.36 10.56Q57.71 10.43 58.03 10.43L58.03 10.43ZM68.19 12.45L68.19 12.45Q68.19 13.41 67.54 14.11L67.54 14.11L67.54 14.11Q66.88 14.81 65.63 15.19L65.63 15.19L65.63 15.19Q64.39 15.57 62.66 15.58L62.66 15.58L62.66 15.76L62.66 15.76Q62.66 16.79 63.03 17.36L63.03 17.36L63.03 17.36Q63.39 17.93 64.04 17.93L64.04 17.93L64.04 17.93Q64.82 17.93 65.32 17.39L65.32 17.39L65.32 17.39Q65.83 16.84 65.87 15.95L65.87 15.95L65.87 15.95Q66.60 15.95 66.98 16.22L66.98 16.22L66.98 16.22Q67.37 16.49 67.37 17.01L67.37 17.01L67.37 17.01Q67.37 17.60 66.89 18.10L66.89 18.10L66.89 18.10Q66.42 18.59 65.60 18.89L65.60 18.89L65.60 18.89Q64.78 19.18 63.78 19.18L63.78 19.18L63.78 19.18Q62.15 19.18 61.22 18.26L61.22 18.26L61.22 18.26Q60.30 17.33 60.30 15.71L60.30 15.71L60.30 15.71Q60.30 14.21 60.99 13.01L60.99 13.01L60.99 13.01Q61.68 11.80 62.90 11.12L62.90 11.12L62.90 11.12Q64.12 10.43 65.63 10.43L65.63 10.43L65.63 10.43Q66.85 10.43 67.52 10.96L67.52 10.96L67.52 10.96Q68.19 11.49 68.19 12.45L68.19 12.45ZM65.25 11.77L65.25 11.77Q64.41 11.77 63.72 12.59L63.72 12.59L63.72 12.59Q63.03 13.40 62.78 14.63L62.78 14.63L62.78 14.63Q64.37 14.56 65.25 14.04L65.25 14.04L65.25 14.04Q66.12 13.51 66.12 12.61L66.12 12.61L66.12 12.61Q66.12 12.24 65.88 12.01L65.88 12.01L65.88 12.01Q65.65 11.77 65.25 11.77L65.25 11.77Z"></path></g><!----><g data-v-423bf9ae="" id="a8b7a0df-e668-4fa3-aa8b-1fddbec7aa83" transform="matrix(1.1111111111111112,0,0,1.1111111111111112,0.44444444444444287,0.44444444444444287)" stroke="none" fill="white"><path d="M50 100C22.43 100 0 77.57 0 50S22.43 0 50 0s50 22.43 50 50-22.43 50-50 50zm0-82.46c-17.899 0-32.46 14.561-32.46 32.46 0 17.898 14.562 32.46 32.46 32.46S82.46 67.899 82.46 50 67.899 17.54 50 17.54z"></path><circle cx="50" cy="50" r="11.664"></circle></g><!----></svg>